<svg xmlns="http://www.w3.org/2000/svg" width="1400" height="1000" viewBox="0 0 1400 1000"><defs><marker id="arrow" markerWidth="8" markerHeight="8" refX="6" refY="3" orient="auto" markerUnits="strokeWidth"><path d="M0 0L6 3L0 6Z" fill="#2476b5"/></marker></defs><rect width="1400" height="1000" fill="#f7f5ee"/><style>text{font-family:serif;fill:#263b31} .route{fill:none;stroke:#397ea3;stroke-width:2}</style><text x="55" y="55" font-size="27">카메라 순환 동선 · 인물 1 → 2 → 3 → 4 → 5 → 석사자</text><circle cx="298.06298828125" cy="305.80543518066406" r="5" fill="#adb7a2"/><circle cx="697.1002955436707" cy="844.7509460449219" r="5" fill="#adb7a2"/><circle cx="587.8212280273438" cy="181.5782470703125" r="5" fill="#adb7a2"/><circle cx="920.2150268554688" cy="514.481761932373" r="5" fill="#adb7a2"/><circle cx="1003.1597290039062" cy="207.10488891601562" r="5" fill="#adb7a2"/><circle cx="347.70501708984375" cy="452.1054458618164" r="5" fill="#adb7a2"/><circle cx="591.7710571289062" cy="821.0598754882812" r="5" fill="#adb7a2"/><circle cx="1082.1723327636719" cy="192.07781982421875" r="5" fill="#adb7a2"/><circle cx="1036.0369873046875" cy="444.28682708740234" r="5" fill="#adb7a2"/><circle cx="1007.3371887207031" cy="394.8358612060547" r="5" fill="#adb7a2"/><circle cx="854.1904602050781" cy="785.0974426269531" r="5" fill="#adb7a2"/><circle cx="947.6171569824219" cy="144.46505737304688" r="5" fill="#adb7a2"/><circle cx="409.3983154296875" cy="184.70565795898438" r="5" fill="#adb7a2"/><circle cx="308.08441162109375" cy="389.2389602661133" r="5" fill="#adb7a2"/><circle cx="1105.8434143066406" cy="420.63201904296875" r="5" fill="#adb7a2"/><circle cx="1093.7386474609375" cy="290.7182159423828" r="5" fill="#adb7a2"/><circle cx="1103.5697021484375" cy="380.9184112548828" r="5" fill="#adb7a2"/><circle cx="374.9720458984375" cy="791.3626708984375" r="5" fill="#adb7a2"/><circle cx="398.36273193359375" cy="217.25457763671875" r="5" fill="#adb7a2"/><circle cx="297.56146240234375" cy="857.9945068359375" r="5" fill="#adb7a2"/><circle cx="1112.2954406738281" cy="761.0414123535156" r="5" fill="#adb7a2"/><circle cx="1123.2107849121094" cy="140.56082153320312" r="5" fill="#adb7a2"/><circle cx="696.9606556892395" cy="113.8740234375" r="5" fill="#adb7a2"/><circle cx="996.91845703125" cy="177.65969848632812" r="5" fill="#adb7a2"/><circle cx="882.9321899414062" cy="786.0094299316406" r="5" fill="#adb7a2"/><circle cx="1077.5441589355469" cy="537.8904228210449" r="5" fill="#adb7a2"/><circle cx="773.5290679931641" cy="133.68679809570312" r="5" fill="#adb7a2"/><circle cx="877.5909118652344" cy="91.86154174804688" r="5" fill="#adb7a2"/><circle cx="1096.8556518554688" cy="683.3395690917969" r="5" fill="#adb7a2"/><circle cx="1123.5645751953125" cy="681.0082855224609" r="5" fill="#adb7a2"/><circle cx="317.73968505859375" cy="838.3442993164062" r="5" fill="#adb7a2"/><circle cx="1058.5386962890625" cy="174.65008544921875" r="5" fill="#adb7a2"/><circle cx="377.3909606933594" cy="251.68255615234375" r="5" fill="#adb7a2"/><circle cx="269.90838623046875" cy="303.39720153808594" r="5" fill="#adb7a2"/><circle cx="633.5845565795898" cy="848.2691650390625" r="5" fill="#adb7a2"/><circle cx="380.7927551269531" cy="401.7855682373047" r="5" fill="#adb7a2"/><circle cx="328.44635009765625" cy="300.1427459716797" r="5" fill="#adb7a2"/><circle cx="650.0409164428711" cy="133.86544799804688" r="5" fill="#adb7a2"/><circle cx="740.70703125" cy="187.08392333984375" r="5" fill="#adb7a2"/><circle cx="1072.4625854492188" cy="351.1735076904297" r="5" fill="#adb7a2"/><circle cx="790.9285430908203" cy="840.2437133789062" r="5" fill="#adb7a2"/><circle cx="1029.9954223632812" cy="303.08226013183594" r="5" fill="#adb7a2"/><circle cx="1040.1582946777344" cy="675.8303833007812" r="5" fill="#adb7a2"/><circle cx="385.55126953125" cy="219.73745727539062" r="5" fill="#adb7a2"/><circle cx="469.9942626953125" cy="491.44005489349365" r="5" fill="#adb7a2"/><circle cx="1128.1221008300781" cy="669.0314788818359" r="5" fill="#adb7a2"/><circle cx="722.1673526763916" cy="821.2862243652344" r="5" fill="#adb7a2"/><circle cx="1033.5781860351562" cy="232.18798828125" r="5" fill="#adb7a2"/><circle cx="1051.9661254882812" cy="652.2886199951172" r="5" fill="#adb7a2"/><circle cx="1057.7172241210938" cy="711.7590942382812" r="5" fill="#adb7a2"/><circle cx="1029.885498046875" cy="190.08541870117188" r="5" fill="#adb7a2"/><circle cx="380.6712646484375" cy="196.7259521484375" r="5" fill="#adb7a2"/><circle cx="922.0072021484375" cy="657.158203125" r="5" fill="#adb7a2"/><circle cx="827.3120193481445" cy="775.1803588867188" r="5" fill="#adb7a2"/><circle cx="680.781099319458" cy="103.45135498046875" r="5" fill="#adb7a2"/><circle cx="336.0391845703125" cy="596.4919281005859" r="5" fill="#adb7a2"/><circle cx="1038.142822265625" cy="195.30386352539062" r="5" fill="#adb7a2"/><circle cx="1006.78076171875" cy="530.0923023223877" r="5" fill="#adb7a2"/><circle cx="815.5248947143555" cy="793.6399536132812" r="5" fill="#adb7a2"/><circle cx="1070.4011535644531" cy="371.2474822998047" r="5" fill="#adb7a2"/><circle cx="936.9810638427734" cy="828.6884460449219" r="5" fill="#adb7a2"/><circle cx="528.6123046875" cy="802.5092163085938" r="5" fill="#adb7a2"/><circle cx="951.4225769042969" cy="362.36155700683594" r="5" fill="#adb7a2"/><circle cx="958.7684326171875" cy="533.3353576660156" r="5" fill="#adb7a2"/><circle cx="1010.9735107421875" cy="331.7264099121094" r="5" fill="#adb7a2"/><circle cx="685.4868469238281" cy="846.6173706054688" r="5" fill="#adb7a2"/><circle cx="398.7743225097656" cy="834.0863342285156" r="5" fill="#adb7a2"/><circle cx="931.2793884277344" cy="770.5886535644531" r="5" fill="#adb7a2"/><circle cx="665.1867980957031" cy="762.1482238769531" r="5" fill="#adb7a2"/><circle cx="465.2640686035156" cy="252.45211791992188" r="5" fill="#adb7a2"/><circle cx="536.3967895507812" cy="778.5289306640625" r="5" fill="#adb7a2"/><circle cx="274.04046630859375" cy="443.70457458496094" r="5" fill="#adb7a2"/><circle cx="363.63916015625" cy="515.7462224960327" r="5" fill="#adb7a2"/><circle cx="748.9869537353516" cy="124.172119140625" r="5" fill="#adb7a2"/><circle cx="1125.2298583984375" cy="575.6207504272461" r="5" fill="#adb7a2"/><circle cx="633.9682388305664" cy="841.6790466308594" r="5" fill="#adb7a2"/><circle cx="341.4165954589844" cy="372.37635803222656" r="5" fill="#adb7a2"/><circle cx="1085.03076171875" cy="622.4237060546875" r="5" fill="#adb7a2"/><circle cx="531.0610961914062" cy="760.5403442382812" r="5" fill="#adb7a2"/><circle cx="372.11529541015625" cy="596.836311340332" r="5" fill="#adb7a2"/><circle cx="509.77215576171875" cy="772.740966796875" r="5" fill="#adb7a2"/><circle cx="1098.5103759765625" cy="146.88262939453125" r="5" fill="#adb7a2"/><circle cx="353.1573181152344" cy="609.4135513305664" r="5" fill="#adb7a2"/><circle cx="956.2007751464844" cy="367.80926513671875" r="5" fill="#adb7a2"/><circle cx="994.5427856445312" cy="225.65658569335938" r="5" fill="#adb7a2"/><circle cx="614.0923156738281" cy="122.69903564453125" r="5" fill="#adb7a2"/><circle cx="929.3494262695312" cy="725.5040435791016" r="5" fill="#adb7a2"/><circle cx="709.6176261901855" cy="127.61001586914062" r="5" fill="#adb7a2"/><circle cx="893.3665771484375" cy="852.7886352539062" r="5" fill="#adb7a2"/><circle cx="1022.9392395019531" cy="811.7427673339844" r="5" fill="#adb7a2"/><circle cx="377.7688903808594" cy="71.5076904296875" r="5" fill="#adb7a2"/><circle cx="911.9499816894531" cy="656.3877868652344" r="5" fill="#adb7a2"/><circle cx="289.5890808105469" cy="223.92645263671875" r="5" fill="#adb7a2"/><circle cx="414.0693054199219" cy="508.8078336715698" r="5" fill="#adb7a2"/><circle cx="304.57818603515625" cy="727.1446838378906" r="5" fill="#adb7a2"/><circle cx="382.0826416015625" cy="205.40774536132812" r="5" fill="#adb7a2"/><circle cx="1124.71484375" cy="564.4922790527344" r="5" fill="#adb7a2"/><circle cx="576.6144104003906" cy="795.7931518554688" r="5" fill="#adb7a2"/><circle cx="398.295654296875" cy="473.3201370239258" r="5" fill="#adb7a2"/><circle cx="870.7516784667969" cy="73.15060424804688" r="5" fill="#adb7a2"/><circle cx="958.4515380859375" cy="102.3970947265625" r="5" fill="#adb7a2"/><circle cx="870.0028381347656" cy="844.5621337890625" r="5" fill="#adb7a2"/><circle cx="1043.6254577636719" cy="146.57708740234375" r="5" fill="#adb7a2"/><circle cx="595.6451416015625" cy="126.90499877929688" r="5" fill="#adb7a2"/><circle cx="337.4565124511719" cy="606.5340957641602" r="5" fill="#adb7a2"/><circle cx="592.0676498413086" cy="835.8219604492188" r="5" fill="#adb7a2"/><circle cx="771.8694458007812" cy="829.2535705566406" r="5" fill="#adb7a2"/><circle cx="1057.403564453125" cy="813.6968688964844" r="5" fill="#adb7a2"/><circle cx="989.5670166015625" cy="670.5848846435547" r="5" fill="#adb7a2"/><circle cx="314.99188232421875" cy="306.05615234375" r="5" fill="#adb7a2"/><circle cx="1118.4613647460938" cy="662.1174774169922" r="5" fill="#adb7a2"/><circle cx="965.9112243652344" cy="499.4020286798477" r="5" fill="#adb7a2"/><circle cx="548.2158813476562" cy="141.68829345703125" r="5" fill="#adb7a2"/><circle cx="850.1230010986328" cy="170.74526977539062" r="5" fill="#adb7a2"/><circle cx="590.0301361083984" cy="107.8150634765625" r="5" fill="#adb7a2"/><circle cx="758.0414810180664" cy="789.979736328125" r="5" fill="#adb7a2"/><circle cx="795.0808410644531" cy="822.6676635742188" r="5" fill="#adb7a2"/><circle cx="969.0894470214844" cy="222.64920043945312" r="5" fill="#adb7a2"/><circle cx="340.4853515625" cy="580.8620986938477" r="5" fill="#adb7a2"/><circle cx="287.0932922363281" cy="667.7334747314453" r="5" fill="#adb7a2"/><circle cx="738.7151336669922" cy="766.5490417480469" r="5" fill="#adb7a2"/><circle cx="989.3891296386719" cy="531.0088996887207" r="5" fill="#adb7a2"/><circle cx="384.9866027832031" cy="144.49188232421875" r="5" fill="#adb7a2"/><circle cx="1023.064697265625" cy="555.1673812866211" r="5" fill="#adb7a2"/><circle cx="1124.9647216796875" cy="185.15936279296875" r="5" fill="#adb7a2"/><circle cx="557.7892761230469" cy="153.80105590820312" r="5" fill="#adb7a2"/><circle cx="576.3911895751953" cy="756.0769653320312" r="5" fill="#adb7a2"/><circle cx="787.5468444824219" cy="848.7951354980469" r="5" fill="#adb7a2"/><circle cx="266.11785888671875" cy="407.6561965942383" r="5" fill="#adb7a2"/><circle cx="660.2138290405273" cy="96.90118408203125" r="5" fill="#adb7a2"/><circle cx="343.5797424316406" cy="666.1900024414062" r="5" fill="#adb7a2"/><circle cx="341.91021728515625" cy="785.5346984863281" r="5" fill="#adb7a2"/><circle cx="658.755241394043" cy="833.7947998046875" r="5" fill="#adb7a2"/><circle cx="372.9796142578125" cy="212.01834106445312" r="5" fill="#adb7a2"/><circle cx="1098.6343383789062" cy="309.87498474121094" r="5" fill="#adb7a2"/><circle cx="290.95062255859375" cy="148.51303100585938" r="5" fill="#adb7a2"/><circle cx="791.3523712158203" cy="85.9459228515625" r="5" fill="#adb7a2"/><circle cx="283.320068359375" cy="217.79864501953125" r="5" fill="#adb7a2"/><circle cx="625.2023773193359" cy="173.62738037109375" r="5" fill="#adb7a2"/><circle cx="493.18408203125" cy="766.4111938476562" r="5" fill="#adb7a2"/><circle cx="318.5084228515625" cy="530.2259788513184" r="5" fill="#adb7a2"/><circle cx="982.0235595703125" cy="538.1359596252441" r="5" fill="#adb7a2"/><circle cx="466.290771484375" cy="210.73690795898438" r="5" fill="#adb7a2"/><circle cx="926.6413879394531" cy="821.9935302734375" r="5" fill="#adb7a2"/><circle cx="946.9646606445312" cy="566.0600357055664" r="5" fill="#adb7a2"/><circle cx="370.76678466796875" cy="811.7421569824219" r="5" fill="#adb7a2"/><circle cx="988.7571411132812" cy="342.1082763671875" r="5" fill="#adb7a2"/><circle cx="502.7427673339844" cy="86.56399536132812" r="5" fill="#adb7a2"/><circle cx="305.169677734375" cy="642.4130706787109" r="5" fill="#adb7a2"/><circle cx="516.6000061035156" cy="396" r="5" fill="#adb7a2"/><circle cx="656.5999984741211" cy="356" r="5" fill="#adb7a2"/><circle cx="868.6000061035156" cy="308" r="5" fill="#adb7a2"/><circle cx="720.6000003814697" cy="272" r="5" fill="#adb7a2"/><circle cx="548.6000061035156" cy="540" r="5" fill="#adb7a2"/><circle cx="640.5999984741211" cy="644" r="5" fill="#adb7a2"/><circle cx="716.6000003814697" cy="624" r="5" fill="#adb7a2"/><circle cx="896.6000061035156" cy="376" r="5" fill="#adb7a2"/><circle cx="923.8000030517578" cy="308" r="5" fill="#adb7a2"/><rect x="743.7999992370605" y="302" width="24.39999771118164" height="36" fill="#ddd9c9" stroke="#7b8374" stroke-width=".7"/><rect x="746.3999996185303" y="304.3999967575073" width="19.200000762939453" height="29.600000381469727" fill="#ddd9c9" stroke="#7b8374" stroke-width=".7"/><rect x="689.2799999713898" y="286" width="1.440000057220459" height="268" fill="#ddd9c9" stroke="#7b8374" stroke-width=".7"/><rect x="885.2799999713898" y="286" width="1.440000057220459" height="268" fill="#ddd9c9" stroke="#7b8374" stroke-width=".7"/><rect x="690" y="550.7000000476837" width="60" height="2.5999999046325684" fill="#ddd9c9" stroke="#7b8374" stroke-width=".7"/><rect x="818" y="550.7000000476837" width="68" height="2.5999999046325684" fill="#ddd9c9" stroke="#7b8374" stroke-width=".7"/><rect x="690" y="551.2799999713898" width="60" height="1.440000057220459" fill="#ddd9c9" stroke="#7b8374" stroke-width=".7"/><rect x="818" y="551.2799999713898" width="68" height="1.440000057220459" fill="#ddd9c9" stroke="#7b8374" stroke-width=".7"/><rect x="567.8000030517578" y="324" width="40.399993896484375" height="32" fill="#ddd9c9" stroke="#7b8374" stroke-width=".7"/><rect x="570.3999996185303" y="326.3999967575073" width="35.20000076293945" height="25.600000381469727" fill="#ddd9c9" stroke="#7b8374" stroke-width=".7"/><rect x="603.8000030517578" y="326" width="32.39999771118164" height="28" fill="#ddd9c9" stroke="#7b8374" stroke-width=".7"/><rect x="606.3999996185303" y="328.3999967575073" width="27.200000762939453" height="21.600000381469727" fill="#ddd9c9" stroke="#7b8374" stroke-width=".7"/><rect x="539.8000030517578" y="326" width="32.399993896484375" height="28" fill="#ddd9c9" stroke="#7b8374" stroke-width=".7"/><rect x="542.3999996185303" y="328.3999967575073" width="27.200000762939453" height="21.600000381469727" fill="#ddd9c9" stroke="#7b8374" stroke-width=".7"/><rect x="793.8000030517578" y="304" width="52.399993896484375" height="32" fill="#ddd9c9" stroke="#7b8374" stroke-width=".7"/><rect x="796.3999996185303" y="306.3999967575073" width="47.20000076293945" height="25.600000381469727" fill="#ddd9c9" stroke="#7b8374" stroke-width=".7"/><rect x="775.8000030517578" y="400" width="48.399993896484375" height="24" fill="#ddd9c9" stroke="#7b8374" stroke-width=".7"/><rect x="778.3999996185303" y="402.3999967575073" width="43.20000076293945" height="17.600000381469727" fill="#ddd9c9" stroke="#7b8374" stroke-width=".7"/><rect x="815.8000030517578" y="410" width="16.399993896484375" height="28" fill="#ddd9c9" stroke="#7b8374" stroke-width=".7"/><rect x="818.4000000953674" y="412.3999967575073" width="11.199999809265137" height="21.600000381469727" fill="#ddd9c9" stroke="#7b8374" stroke-width=".7"/><rect x="767.8000030517578" y="410" width="16.399993896484375" height="28" fill="#ddd9c9" stroke="#7b8374" stroke-width=".7"/><rect x="770.4000000953674" y="412.3999967575073" width="11.199999809265137" height="21.600000381469727" fill="#ddd9c9" stroke="#7b8374" stroke-width=".7"/><rect x="693.8000001907349" y="300" width="36.40000057220459" height="32" fill="#ddd9c9" stroke="#7b8374" stroke-width=".7"/><rect x="696.3999996185303" y="302.3999967575073" width="31.200000762939453" height="25.600000381469727" fill="#ddd9c9" stroke="#7b8374" stroke-width=".7"/><rect x="685.8000001907349" y="322" width="20.399999618530273" height="28" fill="#ddd9c9" stroke="#7b8374" stroke-width=".7"/><rect x="688.4000000953674" y="324.3999967575073" width="15.199999809265137" height="21.600000381469727" fill="#ddd9c9" stroke="#7b8374" stroke-width=".7"/><rect x="775.8000030517578" y="453" width="32.399993896484375" height="22" fill="#ddd9c9" stroke="#7b8374" stroke-width=".7"/><rect x="778.3999996185303" y="455.4000005722046" width="27.200000762939453" height="15.600000381469727" fill="#ddd9c9" stroke="#7b8374" stroke-width=".7"/><rect x="473.8000030517578" y="677" width="28.399993896484375" height="22" fill="#ddd9c9" stroke="#7b8374" stroke-width=".7"/><rect x="476.3999996185303" y="679.3999967575073" width="23.200000762939453" height="15.600000381469727" fill="#ddd9c9" stroke="#7b8374" stroke-width=".7"/><rect x="545.8000030517578" y="729" width="28.399993896484375" height="22" fill="#ddd9c9" stroke="#7b8374" stroke-width=".7"/><rect x="548.3999996185303" y="731.3999967575073" width="23.200000762939453" height="15.600000381469727" fill="#ddd9c9" stroke="#7b8374" stroke-width=".7"/><rect x="617.8000030517578" y="725" width="28.399993896484375" height="22" fill="#ddd9c9" stroke="#7b8374" stroke-width=".7"/><rect x="620.3999996185303" y="727.3999967575073" width="23.200000762939453" height="15.600000381469727" fill="#ddd9c9" stroke="#7b8374" stroke-width=".7"/><rect x="697.8000030517578" y="701" width="28.399993896484375" height="22" fill="#ddd9c9" stroke="#7b8374" stroke-width=".7"/><rect x="700.3999996185303" y="703.3999967575073" width="23.200000762939453" height="15.600000381469727" fill="#ddd9c9" stroke="#7b8374" stroke-width=".7"/><rect x="509.8000030517578" y="585" width="28.399993896484375" height="22" fill="#ddd9c9" stroke="#7b8374" stroke-width=".7"/><rect x="512.3999996185303" y="587.3999967575073" width="23.200000762939453" height="15.600000381469727" fill="#ddd9c9" stroke="#7b8374" stroke-width=".7"/><rect x="567.8000030517578" y="573" width="32.399993896484375" height="22" fill="#ddd9c9" stroke="#7b8374" stroke-width=".7"/><rect x="570.3999996185303" y="575.3999967575073" width="27.200000762939453" height="15.600000381469727" fill="#ddd9c9" stroke="#7b8374" stroke-width=".7"/><rect x="629.8000030517578" y="561" width="36.39999771118164" height="22" fill="#ddd9c9" stroke="#7b8374" stroke-width=".7"/><rect x="632.3999996185303" y="563.3999967575073" width="31.200000762939453" height="15.600000381469727" fill="#ddd9c9" stroke="#7b8374" stroke-width=".7"/><rect x="529.8000030517578" y="673" width="28.399993896484375" height="22" fill="#ddd9c9" stroke="#7b8374" stroke-width=".7"/><rect x="532.3999996185303" y="675.3999967575073" width="23.200000762939453" height="15.600000381469727" fill="#ddd9c9" stroke="#7b8374" stroke-width=".7"/><rect x="595.8000030517578" y="669" width="32.399993896484375" height="22" fill="#ddd9c9" stroke="#7b8374" stroke-width=".7"/><rect x="598.3999996185303" y="671.3999967575073" width="27.200000762939453" height="15.600000381469727" fill="#ddd9c9" stroke="#7b8374" stroke-width=".7"/><rect x="653.7999992370605" y="649" width="36.40000057220459" height="22" fill="#ddd9c9" stroke="#7b8374" stroke-width=".7"/><rect x="656.3999996185303" y="651.3999967575073" width="31.200000762939453" height="15.600000381469727" fill="#ddd9c9" stroke="#7b8374" stroke-width=".7"/><rect x="721.7999992370605" y="645" width="28.400001525878906" height="22" fill="#ddd9c9" stroke="#7b8374" stroke-width=".7"/><rect x="724.3999996185303" y="647.3999967575073" width="23.200000762939453" height="15.600000381469727" fill="#ddd9c9" stroke="#7b8374" stroke-width=".7"/><rect x="479.8000030517578" y="505" width="32.399993896484375" height="22" fill="#ddd9c9" stroke="#7b8374" stroke-width=".7"/><rect x="482.3999996185303" y="507.3999996185303" width="27.200000762939453" height="15.600000381469727" fill="#ddd9c9" stroke="#7b8374" stroke-width=".7"/><rect x="581.8000030517578" y="513" width="36.399993896484375" height="22" fill="#ddd9c9" stroke="#7b8374" stroke-width=".7"/><rect x="584.3999996185303" y="515.4000005722046" width="31.200000762939453" height="15.600000381469727" fill="#ddd9c9" stroke="#7b8374" stroke-width=".7"/><rect x="713.8000001907349" y="505" width="28.40000057220459" height="22" fill="#ddd9c9" stroke="#7b8374" stroke-width=".7"/><rect x="716.3999996185303" y="507.3999996185303" width="23.200000762939453" height="15.600000381469727" fill="#ddd9c9" stroke="#7b8374" stroke-width=".7"/><rect x="495.8000030517578" y="249" width="32.399993896484375" height="22" fill="#ddd9c9" stroke="#7b8374" stroke-width=".7"/><rect x="498.3999996185303" y="251.39999675750732" width="27.200000762939453" height="15.600000381469727" fill="#ddd9c9" stroke="#7b8374" stroke-width=".7"/><rect x="561.8000030517578" y="221" width="36.399993896484375" height="22" fill="#ddd9c9" stroke="#7b8374" stroke-width=".7"/><rect x="564.3999996185303" y="223.4000120162964" width="31.200000762939453" height="15.600000381469727" fill="#ddd9c9" stroke="#7b8374" stroke-width=".7"/><rect x="629.8000030517578" y="197" width="28.39999771118164" height="22" fill="#ddd9c9" stroke="#7b8374" stroke-width=".7"/><rect x="632.3999996185303" y="199.4000120162964" width="23.200000762939453" height="15.600000381469727" fill="#ddd9c9" stroke="#7b8374" stroke-width=".7"/><rect x="919.8000030517578" y="633" width="32.399993896484375" height="22" fill="#ddd9c9" stroke="#7b8374" stroke-width=".7"/><rect x="922.3999996185303" y="635.3999967575073" width="27.200000762939453" height="15.600000381469727" fill="#ddd9c9" stroke="#7b8374" stroke-width=".7"/><rect x="973.7999877929688" y="561" width="36.4000244140625" height="22" fill="#ddd9c9" stroke="#7b8374" stroke-width=".7"/><rect x="976.3999996185303" y="563.3999967575073" width="31.200000762939453" height="15.600000381469727" fill="#ddd9c9" stroke="#7b8374" stroke-width=".7"/><rect x="690" y="283.27999997138977" width="150" height="1.440000057220459" fill="#ddd9c9" stroke="#7b8374" stroke-width=".7"/><rect x="884" y="283.27999997138977" width="2" height="1.440000057220459" fill="#ddd9c9" stroke="#7b8374" stroke-width=".7"/><rect x="690" y="282.7000000476837" width="150" height="2.5999999046325684" fill="#ddd9c9" stroke="#7b8374" stroke-width=".7"/><rect x="884" y="282.7000000476837" width="2" height="2.5999999046325684" fill="#ddd9c9" stroke="#7b8374" stroke-width=".7"/><rect x="372" y="648" width="32" height="24" fill="#9cae97" stroke="#526a55"/><circle cx="360" cy="688" r="7" fill="#687f65"/><circle cx="416" cy="688" r="7" fill="#687f65"/><rect x="372" y="560" width="32" height="24" fill="#9cae97" stroke="#526a55"/><circle cx="360" cy="600" r="7" fill="#687f65"/><circle cx="416" cy="600" r="7" fill="#687f65"/><rect x="372" y="472" width="32" height="24" fill="#9cae97" stroke="#526a55"/><circle cx="360" cy="512" r="7" fill="#687f65"/><circle cx="416" cy="512" r="7" fill="#687f65"/><rect x="372" y="384" width="32" height="24" fill="#9cae97" stroke="#526a55"/><circle cx="360" cy="424" r="7" fill="#687f65"/><circle cx="416" cy="424" r="7" fill="#687f65"/><rect x="372" y="296" width="32" height="24" fill="#9cae97" stroke="#526a55"/><circle cx="360" cy="336" r="7" fill="#687f65"/><circle cx="416" cy="336" r="7" fill="#687f65"/><rect x="492" y="176" width="32" height="24" fill="#9cae97" stroke="#526a55"/><circle cx="480" cy="216" r="7" fill="#687f65"/><circle cx="536" cy="216" r="7" fill="#687f65"/><rect x="588" y="176" width="32" height="24" fill="#9cae97" stroke="#526a55"/><circle cx="576" cy="216" r="7" fill="#687f65"/><circle cx="632" cy="216" r="7" fill="#687f65"/><rect x="684" y="176" width="32" height="24" fill="#9cae97" stroke="#526a55"/><circle cx="672" cy="216" r="7" fill="#687f65"/><circle cx="728" cy="216" r="7" fill="#687f65"/><rect x="780" y="176" width="32" height="24" fill="#9cae97" stroke="#526a55"/><circle cx="768" cy="216" r="7" fill="#687f65"/><circle cx="824" cy="216" r="7" fill="#687f65"/><rect x="876" y="176" width="32" height="24" fill="#9cae97" stroke="#526a55"/><circle cx="864" cy="216" r="7" fill="#687f65"/><circle cx="920" cy="216" r="7" fill="#687f65"/><rect x="1060" y="392" width="32" height="24" fill="#9cae97" stroke="#526a55"/><circle cx="1048" cy="432" r="7" fill="#687f65"/><circle cx="1104" cy="432" r="7" fill="#687f65"/><rect x="1060" y="488" width="32" height="24" fill="#9cae97" stroke="#526a55"/><circle cx="1048" cy="528" r="7" fill="#687f65"/><circle cx="1104" cy="528" r="7" fill="#687f65"/><rect x="1060" y="584" width="32" height="24" fill="#9cae97" stroke="#526a55"/><circle cx="1048" cy="624" r="7" fill="#687f65"/><circle cx="1104" cy="624" r="7" fill="#687f65"/><rect x="972" y="728" width="32" height="24" fill="#9cae97" stroke="#526a55"/><circle cx="960" cy="768" r="7" fill="#687f65"/><circle cx="1016" cy="768" r="7" fill="#687f65"/><rect x="876" y="728" width="32" height="24" fill="#9cae97" stroke="#526a55"/><circle cx="864" cy="768" r="7" fill="#687f65"/><circle cx="920" cy="768" r="7" fill="#687f65"/><rect x="780" y="728" width="32" height="24" fill="#9cae97" stroke="#526a55"/><circle cx="768" cy="768" r="7" fill="#687f65"/><circle cx="824" cy="768" r="7" fill="#687f65"/><rect x="684" y="728" width="32" height="24" fill="#9cae97" stroke="#526a55"/><circle cx="672" cy="768" r="7" fill="#687f65"/><circle cx="728" cy="768" r="7" fill="#687f65"/><rect x="588" y="728" width="32" height="24" fill="#9cae97" stroke="#526a55"/><circle cx="576" cy="768" r="7" fill="#687f65"/><circle cx="632" cy="768" r="7" fill="#687f65"/><rect x="492" y="728" width="32" height="24" fill="#9cae97" stroke="#526a55"/><circle cx="480" cy="768" r="7" fill="#687f65"/><circle cx="536" cy="768" r="7" fill="#687f65"/><rect x="568" y="412" width="76" height="68" fill="none" stroke="#b28f70" stroke-dasharray="4 4"/><text x="568" y="403" font-size="13">종착 석사자 · 중간 경유 금지</text><path class="route" d="M748.0,676.0 L748.4,675.9 L748.7,675.9 L749.1,675.8 L749.5,675.7 L749.8,675.6 L750.2,675.6 L750.6,675.5 L751.0,675.4 L751.3,675.3 L751.7,675.3 L752.1,675.2 L752.4,675.1 L752.8,675.0 L753.2,675.0 L753.5,674.9 L753.9,674.8 L754.3,674.7 L754.6,674.7 L755.0,674.6 L755.4,674.5 L755.7,674.5 L756.1,674.4 L756.5,674.3 L756.9,674.2 L757.2,674.2 L757.6,674.1 L758.0,674.0 L758.3,673.9 L758.7,673.9 L759.1,673.8 L759.4,673.7 L759.8,673.6 L760.2,673.6 L760.5,673.5 L760.9,673.4 L761.3,673.3 L761.6,673.3 L762.0,673.2 L762.4,673.1 L762.8,673.0 L763.1,673.0 L763.5,672.9 L763.9,672.8 L764.2,672.8 L764.6,672.7 L765.0,672.6 L765.3,672.5 L765.7,672.5 L766.1,672.4 L766.4,672.3 L766.8,672.2 L767.2,672.2 L767.5,672.1 L767.9,672.0 L768.3,671.9 L768.7,671.9 L769.0,671.8 L769.4,671.7 L769.8,671.6 L770.1,671.6 L770.5,671.5 L770.9,671.4 L771.2,671.4 L771.6,671.3 L772.0,671.2 L772.3,671.1 L772.7,671.1 L773.1,671.0 L773.4,670.9 L773.8,670.8 L774.2,670.8 L774.6,670.7 L774.9,670.6 L775.3,670.5 L775.7,670.5 L776.0,670.4 L776.4,670.3 L776.8,670.2 L777.1,670.2 L777.5,670.1 L777.9,670.0 L778.2,670.0 L778.6,669.9 L779.0,669.8 L779.3,669.7 L779.7,669.7 L780.1,669.6 L780.5,669.5 L780.8,669.4 L781.2,669.4 L781.6,669.3 L781.9,669.2 L782.3,669.1 L782.7,669.1 L783.0,669.0 L783.4,668.9 L783.8,668.8 L784.1,668.8 L784.5,668.7 L784.9,668.6 L785.2,668.6 L785.6,668.5 L786.0,668.4 L786.4,668.3 L786.7,668.3 L787.1,668.2 L787.5,668.1 L787.8,668.0 L788.2,668.0 L788.6,667.9 L788.9,667.8 L789.3,667.7 L789.7,667.7 L790.0,667.6 L790.4,667.5 L790.8,667.4 L791.1,667.4 L791.5,667.3 L791.9,667.2 L792.3,667.1 L792.6,667.1 L793.0,667.0 L793.4,666.9 L793.7,666.9 L794.1,666.8 L794.5,666.7 L794.8,666.6 L795.2,666.6 L795.6,666.5 L795.9,666.4 L796.3,666.3 L796.7,666.3 L797.0,666.2 L797.4,666.1 L797.8,666.0 L798.2,666.0 L798.5,665.9 L798.9,665.8 L799.2,665.7 L799.6,665.6 L800.0,665.5 L800.3,665.4 L800.7,665.3 L801.1,665.2 L801.4,665.1 L801.8,665.0 L802.1,664.9 L802.5,664.8 L802.9,664.7 L803.2,664.5 L803.6,664.4 L803.9,664.3 L804.3,664.2 L804.6,664.0 L805.0,663.9 L805.3,663.8 L805.7,663.6 L806.0,663.5 L806.4,663.3 L806.7,663.2 L807.1,663.0 L807.4,662.8 L807.7,662.7 L808.1,662.5 L808.4,662.3 L808.7,662.2 L809.1,662.0 L809.4,661.8 L809.7,661.6 L810.0,661.4 L810.3,661.2 L810.7,661.0 L811.0,660.7 L811.3,660.5 L811.6,660.3 L811.9,660.1 L812.1,659.8 L812.4,659.6 L812.7,659.3 L813.0,659.1 L813.3,658.8 L813.5,658.5 L813.8,658.3 L814.0,658.0 L814.3,657.7 L814.5,657.4 L814.7,657.1 L814.9,656.8 L815.1,656.5 L815.4,656.2 L815.5,655.8 L815.7,655.5 L815.9,655.2 L816.1,654.8 L816.2,654.5 L816.4,654.1 L816.5,653.8 L816.6,653.4 L816.7,653.1 L816.9,652.7 L817.0,652.4 L817.0,652.0 L817.1,651.6 L817.2,651.3 L817.2,650.9 L817.3,650.5 L817.3,650.1 L817.4,649.8 L817.4,649.4 L817.4,649.0 L817.4,648.6 L817.4,648.3 L817.4,647.9 L817.4,647.5 L817.4,647.1 L817.3,646.8 L817.3,646.4 L817.2,646.0 L817.2,645.6 L817.1,645.3 L817.1,644.9 L817.0,644.5 L816.9,644.2 L816.8,643.8 L816.8,643.4 L816.7,643.1 L816.6,642.7 L816.5,642.3 L816.4,642.0 L816.2,641.6 L816.1,641.3 L816.0,640.9 L815.9,640.5 L815.8,640.2 L815.6,639.8 L815.5,639.5 L815.4,639.1 L815.2,638.8 L815.1,638.4 L814.9,638.1 L814.8,637.7 L814.6,637.4 L814.5,637.1 L814.3,636.7 L814.2,636.4 L814.0,636.0 L813.8,635.7 L813.7,635.4 L813.5,635.0 L813.3,634.7 L813.2,634.4 L813.0,634.0 L812.8,633.7 L812.6,633.4 L812.4,633.0 L812.3,632.7 L812.1,632.4 L811.9,632.1 L811.7,631.7 L811.5,631.4 L811.3,631.1 L811.1,630.8 L810.9,630.4 L810.8,630.1 L810.6,629.8 L810.4,629.4 L810.2,629.1 L810.0,628.8 L809.8,628.5 L809.6,628.1 L809.4,627.8 L809.3,627.5 L809.1,627.2 L808.9,626.8 L808.7,626.5 L808.5,626.2 L808.3,625.9 L808.1,625.5 L807.9,625.2 L807.7,624.9 L807.6,624.6 L807.4,624.2 L807.2,623.9 L807.0,623.6 L806.8,623.3 L806.6,622.9 L806.4,622.6 L806.2,622.3 L806.1,622.0 L805.9,621.6 L805.7,621.3 L805.5,621.0 L805.3,620.7 L805.1,620.3 L804.9,620.0 L804.7,619.7 L804.6,619.4 L804.4,619.0 L804.2,618.7 L804.0,618.4 L803.8,618.0 L803.6,617.7 L803.4,617.4 L803.2,617.1 L803.1,616.7 L802.9,616.4 L802.7,616.1 L802.5,615.8 L802.3,615.4 L802.1,615.1 L801.9,614.8 L801.7,614.5 L801.5,614.1 L801.4,613.8 L801.2,613.5 L801.0,613.2 L800.8,612.8 L800.6,612.5 L800.4,612.2 L800.2,611.9 L800.0,611.5 L799.9,611.2 L799.7,610.9 L799.5,610.6 L799.3,610.2 L799.1,609.9 L798.9,609.6 L798.7,609.3 L798.5,608.9 L798.4,608.6 L798.2,608.3 L798.0,607.9 L797.8,607.6 L797.6,607.3 L797.4,607.0 L797.2,606.6 L797.0,606.3 L796.9,606.0 L796.7,605.7 L796.5,605.3 L796.3,605.0 L796.1,604.7 L795.9,604.4 L795.7,604.0 L795.5,603.7 L795.3,603.4 L795.2,603.1 L795.0,602.7 L794.8,602.4 L794.6,602.1 L794.4,601.8 L794.2,601.4 L794.0,601.1 L793.8,600.8 L793.7,600.5 L793.5,600.1 L793.3,599.8 L793.1,599.5 L792.9,599.2 L792.7,598.8 L792.5,598.5 L792.3,598.2 L792.2,597.8 L792.0,597.5 L791.8,597.2 L791.6,596.9 L791.4,596.5 L791.2,596.2 L791.0,595.9 L790.8,595.6 L790.7,595.2 L790.5,594.9 L790.3,594.6 L790.1,594.3 L789.9,593.9 L789.7,593.6 L789.5,593.3 L789.3,593.0 L789.1,592.6 L789.0,592.3 L788.8,592.0 L788.6,591.7 L788.4,591.3 L788.2,591.0 L788.0,590.7 L787.8,590.4 L787.6,590.0 L787.5,589.7 L787.3,589.4 L787.1,589.1 L786.9,588.7 L786.7,588.4 L786.5,588.1 L786.3,587.7 L786.1,587.4 L786.0,587.1 L785.8,586.8 L785.6,586.4 L785.4,586.1 L785.2,585.8"/><path class="route" d="M785.2,585.8 L787.1,586.0 L789.1,586.1 L791.0,586.3 L792.9,586.4 L794.8,586.6 L796.8,586.8 L798.7,586.9 L800.6,587.1 L802.5,587.2 L804.5,587.4 L806.4,587.6 L808.3,587.7 L810.2,587.9 L812.2,588.0 L814.1,588.2 L816.0,588.4 L818.0,588.5 L819.9,588.7 L821.8,588.8 L823.7,589.0 L825.7,589.2 L827.6,589.3 L829.5,589.5 L831.4,589.6 L833.4,589.8 L835.3,590.0 L837.2,590.1 L839.1,590.3 L841.1,590.4 L843.0,590.6 L844.9,590.8 L846.8,590.9 L848.8,591.1 L850.7,591.2 L852.6,591.4 L854.6,591.6 L856.5,591.7 L858.4,591.9 L860.3,592.0 L862.3,592.2 L864.2,592.4 L866.1,592.5 L868.0,592.7 L870.0,592.8 L871.9,593.0 L873.8,593.2 L875.7,593.3 L877.7,593.5 L879.6,593.6 L881.5,593.8 L883.4,594.0 L885.4,594.1 L887.3,594.3 L889.2,594.4 L891.2,594.6 L893.1,594.6 L895.0,594.7 L897.0,594.6 L898.9,594.6 L900.8,594.4 L902.7,594.3 L904.7,594.0 L906.6,593.8 L908.5,593.4 L910.4,593.1 L912.3,592.6 L914.1,592.1 L916.0,591.6 L917.8,591.0 L919.7,590.4 L921.5,589.7 L923.3,589.0 L925.0,588.3 L926.8,587.5 L928.6,586.7 L930.3,585.9 L932.1,585.1 L933.8,584.3 L935.6,583.5 L937.4,582.7 L939.1,581.9 L940.9,581.1 L942.6,580.2 L944.3,579.3 L946.0,578.4 L947.7,577.3 L949.3,576.3 L950.8,575.1 L952.4,574.0 L953.8,572.7 L955.3,571.4 L956.7,570.1 L958.0,568.7 L959.3,567.2 L960.5,565.8 L961.8,564.3 L963.0,562.8 L964.2,561.3 L965.5,559.9 L966.9,558.5 L968.3,557.2 L969.8,555.9 L971.3,554.7 L972.9,553.6 L974.6,552.6 L976.3,551.7 L978.0,550.9 L979.8,550.1 L981.6,549.5 L983.4,548.9 L985.3,548.4 L987.2,547.9 L989.0,547.4 L990.9,546.8 L992.8,546.3 L994.6,545.8 L996.5,545.3 L998.4,544.8 L1000.2,544.3 L1002.0,543.6 L1003.8,542.8 L1005.5,541.9 L1007.1,540.9 L1008.7,539.7 L1010.1,538.4 L1011.4,537.0 L1012.6,535.5 L1013.6,533.8 L1014.4,532.1 L1015.1,530.2 L1015.6,528.4 L1016.0,526.5 L1016.2,524.6 L1016.4,522.6 L1016.4,520.7 L1016.5,518.8 L1016.5,516.8 L1016.6,514.9 L1016.6,513.0 L1016.7,511.1 L1016.7,509.1 L1016.7,507.2 L1016.8,505.3 L1016.8,503.3 L1016.9,501.4 L1016.9,499.5 L1017.0,497.5 L1017.0,495.6 L1017.1,493.7 L1017.1,491.7 L1017.1,489.8 L1017.2,487.9 L1017.2,485.9 L1017.3,484.0 L1017.3,482.1 L1017.4,480.1 L1017.4,478.2 L1017.4,476.3 L1017.5,474.3 L1017.5,472.4 L1017.6,470.5 L1017.6,468.5 L1017.7,466.6 L1017.7,464.7 L1017.8,462.7 L1017.8,460.8 L1017.8,458.9 L1017.9,456.9 L1017.9,455.0 L1018.0,453.1 L1018.0,451.1 L1018.1,449.2 L1018.1,447.3 L1018.2,445.3 L1018.2,443.4 L1018.2,441.5 L1018.3,439.5 L1018.3,437.6 L1018.4,435.7 L1018.4,433.7 L1018.5,431.8 L1018.5,429.9 L1018.5,428.0 L1018.6,426.0 L1018.6,424.1 L1018.7,422.2 L1018.7,420.2 L1018.8,418.3 L1018.8,416.4 L1018.9,414.4 L1018.9,412.5 L1018.9,410.6 L1019.0,408.6 L1019.0,406.7 L1019.1,404.8 L1019.1,402.8 L1019.2,400.9 L1019.2,399.0 L1019.2,397.0 L1019.3,395.1 L1019.3,393.2 L1019.4,391.2 L1019.4,389.3 L1019.5,387.4 L1019.5,385.4 L1019.6,383.5 L1019.6,381.6 L1019.6,379.6 L1019.7,377.7 L1019.7,375.8 L1019.8,373.8 L1019.8,371.9 L1019.8,370.0 L1019.7,368.0 L1019.5,366.1 L1019.2,364.2 L1018.7,362.4 L1018.1,360.5 L1017.3,358.7 L1016.5,357.0 L1015.6,355.3 L1014.7,353.5 L1013.6,352.0 L1012.2,350.7 L1010.4,349.9 L1008.5,349.7 L1006.6,349.9 L1004.7,350.4 L1002.9,351.0 L1001.0,351.7 L999.2,352.3 L997.4,352.9 L995.5,353.4 L993.6,353.7 L991.7,353.8 L989.8,353.7 L987.9,353.3 L986.0,352.7 L984.3,351.9 L982.7,350.8 L981.1,349.6 L979.7,348.3 L978.3,347.0 L976.9,345.7 L975.5,344.4 L974.1,343.0 L972.6,341.7 L971.2,340.4 L969.8,339.1 L968.4,337.8 L967.0,336.5 L965.6,335.2 L964.1,333.8 L962.7,332.5 L961.3,331.2 L959.9,329.9 L958.5,328.6 L957.1,327.3 L955.6,325.9 L954.2,324.6 L952.8,323.3 L951.4,322.0 L950.0,320.7 L948.6,319.4 L947.1,318.1 L945.7,316.7 L944.3,315.4 L942.9,314.1 L941.5,312.8 L940.1,311.5 L938.6,310.2 L937.2,308.9 L935.8,307.5 L934.4,306.2 L933.1,304.8 L931.9,303.3 L930.9,301.7 L930.0,299.9 L929.1,298.2 L928.1,296.6 L926.9,295.0 L925.6,293.6 L924.2,292.2 L922.9,290.9 L921.5,289.5 L920.1,288.1 L918.8,286.8 L917.4,285.4 L916.0,284.0 L914.7,282.7 L913.3,281.3 L911.9,279.9 L910.6,278.6 L909.2,277.2 L907.8,275.8 L906.5,274.5 L905.1,273.1 L903.7,271.7 L902.4,270.4 L901.0,269.0 L899.6,267.6 L898.3,266.3 L896.9,264.9 L895.5,263.5 L894.1,262.2 L892.7,260.9 L891.2,259.7 L889.6,258.6 L887.9,257.6 L886.2,256.7 L884.4,256.0 L882.5,255.6 L880.6,255.6 L878.7,255.9 L876.9,256.7 L875.3,257.7 L873.9,259.1 L872.7,260.6 L871.7,262.2 L870.8,263.9 L870.0,265.7 L869.2,267.5 L868.6,269.3 L868.0,271.1 L867.5,273.0 L866.9,274.8 L866.4,276.7 L865.8,278.6 L865.3,280.4 L864.7,282.3 L864.2,284.1 L863.7,286.0 L863.1,287.8 L862.6,289.7 L862.0,291.5 L861.5,293.4 L860.9,295.2 L860.4,297.1 L859.8,299.0 L859.3,300.8 L858.7,302.7 L858.2,304.5 L857.7,306.4 L857.3,308.3 L857.3,310.2 L857.9,312.0 L859.0,313.6 L860.4,314.9 L862.0,316.0 L863.6,317.1 L865.2,318.1 L866.8,319.2 L868.6,319.9 L870.5,320.0 L871.7,321.2 L871.3,323.1 L870.9,325.0 L870.4,326.9 L870.0,328.7 L869.5,330.6 L869.1,332.5 L868.7,334.4 L868.2,336.3 L867.8,338.2 L867.4,340.0 L866.9,341.9 L866.5,343.8 L866.1,345.7 L865.6,347.6 L865.2,349.5 L864.8,351.3 L864.3,353.2 L863.9,355.1 L863.5,357.0 L862.9,358.8 L862.2,360.6 L861.4,362.4 L860.3,364.0 L859.1,365.5 L857.6,366.8 L856.0,367.8 L854.2,368.6 L852.4,369.1 L850.5,369.4 L848.5,369.4 L846.6,369.3 L844.7,369.1 L842.8,368.7 L840.9,368.4 L839.0,368.0 L837.1,367.6 L835.2,367.3 L833.3,366.9 L831.4,366.6 L829.5,366.2 L827.6,365.8 L825.7,365.5 L823.8,365.1 L821.9,364.8 L820.0,364.4"/><path class="route" d="M820.0,364.4 L822.0,364.8 L824.0,365.2 L826.0,365.5 L828.0,365.9 L830.0,366.3 L832.0,366.7 L834.0,367.1 L836.0,367.4 L838.0,367.8 L840.0,368.2 L841.9,368.6 L843.9,368.9 L845.9,369.3 L848.0,369.4 L850.0,369.4 L852.0,369.2 L854.0,368.7 L855.9,367.9 L857.6,366.8 L859.1,365.5 L860.4,363.9 L861.5,362.2 L862.3,360.4 L863.0,358.4 L863.6,356.5 L864.0,354.5 L864.5,352.5 L864.9,350.6 L865.4,348.6 L865.9,346.6 L866.3,344.6 L866.8,342.6 L867.2,340.7 L867.7,338.7 L868.1,336.7 L868.6,334.7 L869.1,332.7 L869.5,330.8 L870.0,328.8 L870.4,326.8 L870.9,324.8 L871.1,322.8 L870.5,320.9 L869.2,319.4 L867.4,318.5 L865.5,317.8 L863.5,317.2 L861.7,316.4 L860.1,315.1 L858.8,313.5 L857.9,311.7 L857.1,309.9 L856.7,307.9 L856.8,305.9 L857.3,303.9 L857.9,302.0 L858.5,300.0 L859.1,298.1 L859.7,296.2 L860.3,294.2 L860.9,292.3 L861.5,290.3 L862.1,288.4 L862.7,286.5 L863.3,284.5 L863.9,282.6 L864.5,280.6 L865.2,278.7 L865.8,276.8 L866.4,274.8 L867.0,272.9 L867.6,271.0 L868.2,269.0 L868.7,267.1 L869.2,265.1 L869.5,263.1 L869.8,261.1 L869.8,259.0 L869.7,257.0 L869.4,255.0 L868.9,253.0 L868.1,251.2 L867.0,249.5 L865.7,247.9 L864.1,246.6 L862.4,245.5 L860.6,244.6 L858.8,243.8 L856.8,243.2 L854.8,242.8 L852.8,242.4 L850.8,242.2 L848.8,242.0 L846.8,241.8 L844.7,241.7 L842.7,241.5 L840.7,241.4 L838.7,241.2 L836.6,241.1 L834.6,240.9 L832.6,240.8 L830.6,240.6 L828.5,240.5 L826.5,240.3 L824.5,240.2 L822.5,240.0 L820.4,239.9 L818.4,239.7 L816.4,239.6 L814.4,239.4 L812.3,239.3 L810.3,239.1 L808.3,239.0 L806.3,238.8 L804.2,238.7 L802.2,238.5 L800.2,238.4 L798.2,238.2 L796.1,238.1 L794.1,237.9 L792.1,237.8 L790.1,237.6 L788.0,237.5 L786.0,237.3 L784.0,237.2 L782.0,237.0 L779.9,236.9 L777.9,236.7 L775.9,236.6 L773.9,236.4 L771.8,236.3 L769.8,236.1 L767.8,236.0 L765.8,235.8 L763.7,235.7 L761.7,235.5 L759.7,235.4 L757.7,235.2 L755.6,235.1 L753.6,234.9 L751.6,234.8 L749.6,234.6 L747.5,234.5 L745.5,234.3 L743.5,234.2 L741.5,234.0 L739.4,233.9 L737.4,233.7 L735.4,233.6 L733.4,233.4 L731.3,233.3 L729.3,233.1 L727.3,233.0 L725.3,232.8 L723.2,232.7 L721.2,232.5 L719.2,232.4 L717.2,232.2 L715.1,232.1 L713.1,231.9 L711.1,231.8 L709.0,231.6 L707.0,231.5 L705.0,231.3 L703.0,231.2 L700.9,231.0 L698.9,230.9 L696.9,230.7 L694.9,230.6 L692.8,230.4 L690.8,230.3 L688.8,230.1 L686.8,230.0 L684.7,229.9 L682.7,229.8 L680.7,229.7 L678.7,229.7 L676.6,229.7 L674.6,229.7 L672.6,229.8 L670.5,229.9 L668.5,230.0 L666.5,230.2 L664.5,230.4 L662.4,230.6 L660.4,230.9 L658.4,231.2 L656.4,231.5 L654.4,231.9 L652.4,232.3 L650.5,232.8 L648.5,233.2 L646.5,233.7 L644.6,234.3 L642.6,234.8 L640.7,235.4 L638.7,236.1 L636.8,236.7 L634.9,237.4 L633.0,238.1 L631.1,238.8 L629.2,239.6 L627.3,240.3 L625.4,241.0 L623.5,241.7 L621.6,242.4 L619.7,243.1 L617.8,243.8 L615.9,244.5 L614.0,245.3 L612.1,246.0 L610.2,246.7 L608.3,247.4 L606.4,248.1 L604.5,248.8 L602.5,249.4 L600.6,249.9 L598.6,250.3 L596.6,250.7 L594.6,251.0 L592.5,251.2 L590.5,251.3 L588.5,251.3 L586.5,251.3 L584.4,251.2 L582.4,251.0 L580.4,250.9 L578.4,250.7 L576.3,250.6 L574.3,250.5 L572.3,250.3 L570.3,250.2 L568.2,250.0 L566.2,249.9 L564.2,249.7 L562.1,249.6 L560.1,249.4 L558.1,249.3 L556.1,249.1 L554.0,249.0 L552.0,248.9 L550.0,248.7 L548.0,248.6 L545.9,248.4 L543.9,248.2 L541.9,247.8 L540.0,247.2 L538.1,246.4 L536.3,245.5 L534.6,244.4 L532.9,243.3 L531.2,242.2 L529.3,241.4 L527.4,240.9 L525.4,240.5 L523.3,240.5 L521.3,240.7 L519.3,240.9 L517.3,241.1 L515.2,241.3 L513.2,241.5 L511.2,241.7 L509.2,241.9 L507.2,242.1 L505.1,242.3 L503.1,242.5 L501.1,242.7 L499.1,242.9 L497.1,243.1 L495.0,243.3 L493.0,243.5 L491.0,243.9 L489.1,244.5 L487.3,245.4 L485.6,246.6 L484.1,247.9 L482.6,249.4 L481.2,250.8 L479.8,252.2 L478.3,253.7 L476.9,255.1 L475.5,256.5 L474.0,258.0 L472.6,259.4 L471.2,260.8 L469.7,262.3 L468.2,263.6 L466.2,264.0 L464.3,264.5 L464.1,266.5 L464.2,268.5 L464.2,270.5 L464.3,272.6 L464.4,274.6 L464.5,276.6 L464.5,278.7 L464.6,280.7 L464.7,282.7 L464.8,284.7 L464.8,286.8 L464.9,288.8 L465.0,290.8 L465.1,292.9 L465.1,294.9 L465.2,296.9 L465.3,299.0 L465.4,301.0 L465.4,303.0 L465.5,305.0 L465.6,307.1 L465.7,309.1 L465.7,311.1 L465.8,313.2 L465.9,315.2 L466.0,317.2 L466.0,319.2 L466.1,321.3 L466.2,323.3 L466.3,325.3 L466.3,327.4 L466.4,329.4 L466.5,331.4 L466.6,333.5 L466.6,335.5 L466.7,337.5 L466.8,339.5 L466.9,341.6 L467.0,343.6 L467.3,345.6 L467.6,347.6 L468.0,349.6 L468.4,351.6 L469.0,353.5 L469.7,355.5 L470.4,357.3 L471.3,359.2 L472.3,361.0 L473.3,362.7 L474.5,364.3 L475.8,365.9 L477.2,367.4 L478.6,368.8 L480.2,370.1 L481.8,371.3 L483.5,372.5 L485.2,373.5 L487.0,374.4 L488.9,375.3 L490.8,376.1 L492.7,376.7 L494.6,377.3 L496.6,377.9 L498.6,378.4 L500.5,378.8 L502.5,379.2 L504.5,379.6 L506.5,380.0 L508.5,380.4 L510.5,380.8 L512.5,381.3 L514.5,381.7 L516.4,382.1 L518.4,382.5 L520.4,382.9 L522.4,383.3 L524.4,383.7 L526.4,384.1 L528.4,384.6 L530.4,385.0 L532.4,385.4 L534.3,385.8 L536.3,386.2 L538.3,386.6 L540.3,387.0 L542.3,387.5 L544.3,387.9 L546.3,388.3 L548.3,388.7 L550.2,389.1 L552.2,389.5 L554.2,389.9 L556.2,390.3 L558.2,390.8 L560.2,391.2 L562.2,391.6 L564.2,392.0 L566.2,392.4 L568.1,392.8 L570.1,393.2 L572.1,393.7 L574.1,394.1 L576.1,394.5 L578.1,394.9 L580.1,395.3 L582.1,395.7 L584.0,396.1 L586.0,396.6 L588.0,397.0 L590.0,397.4 L592.0,397.8"/><path class="route" d="M592.0,397.8 L590.6,397.6 L589.1,397.4 L587.7,397.2 L586.3,397.0 L584.8,396.8 L583.4,396.6 L581.9,396.4 L580.5,396.1 L579.1,395.9 L577.6,395.7 L576.2,395.5 L574.8,395.3 L573.3,395.1 L571.9,394.9 L570.4,394.7 L569.0,394.5 L567.6,394.3 L566.1,394.1 L564.7,393.9 L563.3,393.7 L561.8,393.5 L560.4,393.3 L558.9,393.1 L557.5,392.8 L556.1,392.6 L554.6,392.4 L553.2,392.2 L551.8,392.0 L550.3,391.8 L548.9,391.6 L547.4,391.4 L546.0,391.2 L544.6,391.0 L543.1,390.8 L541.7,390.6 L540.3,390.4 L538.8,390.2 L537.4,390.0 L536.0,389.8 L534.5,389.5 L533.1,389.3 L531.6,389.1 L530.2,388.9 L528.8,388.7 L527.3,388.5 L525.9,388.3 L524.5,388.1 L523.0,387.9 L521.6,387.7 L520.1,387.5 L518.7,387.3 L517.3,387.1 L515.8,386.9 L514.4,386.7 L513.0,386.5 L511.5,386.2 L510.1,386.0 L508.6,385.8 L507.2,385.6 L505.8,385.4 L504.3,385.2 L502.9,385.0 L501.5,384.8 L500.0,384.6 L498.6,384.4 L497.1,384.2 L495.7,384.1 L494.2,384.0 L492.8,384.0 L491.3,384.0 L489.9,384.0 L488.4,384.2 L487.0,384.3 L485.6,384.6 L484.2,384.9 L482.8,385.3 L481.4,385.7 L480.0,386.3 L478.7,386.9 L477.5,387.6 L476.3,388.4 L475.1,389.3 L474.0,390.3 L473.0,391.4 L472.1,392.5 L471.3,393.6 L470.5,394.9 L469.8,396.1 L469.1,397.4 L468.6,398.8 L468.1,400.1 L467.6,401.5 L467.2,402.9 L466.9,404.3 L466.6,405.8 L466.4,407.2 L466.2,408.6 L466.0,410.1 L465.9,411.5 L465.8,413.0 L465.7,414.4 L465.6,415.9 L465.5,417.3 L465.4,418.8 L465.3,420.2 L465.2,421.7 L465.1,423.1 L465.0,424.6 L464.9,426.0 L464.8,427.5 L464.7,428.9 L464.6,430.3 L464.5,431.8 L464.5,433.2 L464.4,434.7 L464.3,436.1 L464.2,437.6 L464.1,439.0 L464.0,440.5 L463.9,441.9 L463.8,443.4 L463.7,444.8 L463.6,446.3 L463.5,447.7 L463.4,449.2 L463.3,450.6 L463.2,452.1 L463.1,453.5 L463.0,455.0 L462.9,456.4 L462.8,457.9 L462.7,459.3 L462.6,460.8 L462.5,462.2 L462.4,463.7 L462.3,465.1 L462.2,466.6 L462.1,468.0 L462.0,469.5 L461.9,470.9 L461.9,472.4 L461.8,473.8 L461.7,475.3 L461.6,476.7 L461.5,478.2 L461.4,479.6 L461.4,481.1 L461.3,482.5 L461.2,484.0 L461.1,485.4 L461.1,486.9 L461.0,488.3 L460.9,489.8 L460.9,491.2 L460.8,492.7 L460.7,494.1 L460.7,495.6 L460.6,497.0 L460.6,498.5 L460.5,499.9 L460.5,501.4 L460.4,502.8 L460.4,504.3 L460.4,505.7 L460.3,507.2 L460.3,508.6 L460.3,510.1 L460.2,511.5 L460.2,513.0 L460.2,514.4 L460.1,515.9 L460.1,517.3 L460.1,518.8 L460.1,520.2 L460.1,521.7 L460.0,523.1 L460.0,524.6 L460.0,526.0 L460.0,527.5 L460.0,528.9 L460.0,530.4 L460.0,531.8 L460.0,533.3 L460.0,534.8 L460.0,536.2 L460.0,537.7 L460.0,539.1 L460.0,540.6 L460.0,542.0 L460.0,543.5 L460.0,544.9 L460.0,546.4 L460.0,547.8 L460.0,549.3 L460.0,550.7 L460.0,552.2 L460.0,553.6 L460.0,555.1 L460.0,556.5 L460.0,558.0 L460.0,559.4 L460.0,560.9 L460.0,562.3 L460.0,563.8 L460.0,565.2 L460.0,566.7 L460.0,568.1 L460.0,569.6 L460.0,571.0 L460.0,572.5 L460.0,573.9 L460.0,575.4 L460.0,576.9 L460.0,578.3 L460.0,579.8 L460.0,581.2 L460.0,582.7 L460.0,584.1 L460.0,585.6 L460.0,587.0 L460.0,588.5 L460.0,589.9 L460.0,591.4 L460.0,592.8 L460.0,594.3 L460.0,595.7 L460.0,597.2 L460.0,598.6 L460.0,600.1 L460.0,601.5 L460.0,603.0 L460.0,604.4 L460.0,605.9 L460.0,607.3 L460.0,608.8 L460.0,610.2 L460.0,611.7 L460.0,613.1 L460.0,614.6 L460.0,616.1 L460.0,617.5 L460.0,619.0 L460.0,620.4 L460.0,621.9 L460.0,623.3 L460.0,624.8 L460.0,626.2 L460.0,627.7 L460.0,629.1 L460.0,630.6 L460.0,632.0 L460.0,633.5 L460.0,634.9 L460.0,636.4 L460.0,637.8 L460.1,639.3 L460.2,640.7 L460.3,642.2 L460.5,643.6 L460.8,645.0 L461.0,646.5 L461.4,647.9 L461.8,649.3 L462.3,650.6 L462.8,652.0 L463.4,653.3 L464.1,654.6 L464.8,655.8 L465.7,657.0 L466.6,658.2 L467.5,659.2 L468.6,660.2 L469.7,661.2 L470.9,662.0 L472.1,662.8 L473.4,663.5 L474.7,664.1 L476.1,664.6 L477.4,665.1 L478.8,665.5 L480.2,665.9 L481.7,666.1 L483.1,666.4 L484.5,666.5 L486.0,666.6 L487.4,666.7 L488.9,666.8 L490.3,666.8 L491.8,666.7 L493.2,666.7 L494.7,666.6 L496.1,666.6 L497.6,666.5 L499.0,666.4 L500.5,666.4 L501.9,666.3 L503.4,666.3 L504.8,666.2 L506.3,666.1 L507.7,666.1 L509.2,666.0 L510.6,666.0 L512.1,665.9 L513.5,665.9 L515.0,665.8 L516.4,665.7 L517.9,665.7 L519.3,665.6 L520.8,665.6 L522.2,665.5 L523.7,665.5 L525.1,665.4 L526.6,665.3 L528.0,665.3 L529.5,665.2 L531.0,665.2 L532.4,665.1 L533.9,665.0 L535.3,665.0 L536.8,664.9 L538.2,664.9 L539.7,664.8 L541.1,664.8 L542.6,664.7 L544.0,664.6 L545.5,664.6 L546.9,664.5 L548.4,664.5 L549.8,664.4 L551.3,664.3 L552.7,664.3 L554.2,664.2 L555.6,664.2 L557.1,664.1 L558.5,664.1 L559.9,664.5 L561.2,665.2 L562.2,666.2 L563.2,667.3 L564.0,668.5 L564.6,669.8 L565.1,671.2 L565.5,672.6 L566.0,673.9 L566.4,675.3 L567.0,676.7 L567.7,677.9 L568.5,679.1 L569.5,680.2 L570.6,681.1 L571.8,681.9 L573.1,682.6 L574.4,683.2 L575.7,683.9 L577.0,684.5 L578.3,685.1 L579.7,685.6 L581.1,685.8 L582.6,685.6 L583.8,684.9 L584.8,683.8 L585.5,682.5 L586.0,681.2 L586.3,679.8 L586.7,678.4 L587.1,677.0 L587.5,675.6 L587.9,674.2 L588.3,672.8 L588.7,671.4 L589.1,670.0 L589.5,668.6 L589.9,667.2 L590.3,665.8 L590.8,664.4 L591.4,663.1 L592.1,661.8 L592.9,660.7 L593.9,659.6 L595.0,658.6 L596.2,657.8 L597.4,657.1 L598.7,656.4 L600.0,655.7 L601.3,655.0 L602.6,654.3 L603.8,653.7 L605.1,653.0 L606.4,652.3 L607.7,651.6 L609.0,650.9 L610.2,650.2 L611.5,649.6 L612.8,648.9 L614.1,648.2 L615.4,647.5 L616.6,646.8 L617.9,646.1 L619.2,645.4 L620.5,644.8"/><path class="route" d="M620.5,644.8 L621.7,646.3 L622.8,647.8 L624.0,649.3 L625.2,650.8 L626.4,652.3 L627.6,653.8 L628.8,655.4 L629.9,656.9 L631.1,658.4 L632.3,659.9 L633.5,661.4 L634.7,662.9 L635.9,664.4 L637.0,666.0 L638.2,667.5 L639.4,669.0 L640.6,670.5 L641.8,672.0 L643.0,673.5 L644.3,674.9 L645.7,676.2 L647.2,677.3 L648.9,678.3 L650.7,679.0 L652.5,679.5 L654.4,679.9 L656.3,680.0 L658.3,680.0 L660.2,680.0 L662.1,680.0 L664.0,680.0 L666.0,680.0 L667.9,680.0 L669.8,680.0 L671.7,680.0 L673.6,680.0 L675.6,680.0 L677.5,680.0 L679.4,680.0 L681.3,680.0 L683.2,680.0 L685.2,680.0 L687.1,680.0 L689.0,680.0 L690.9,680.0 L692.8,680.0 L694.8,679.9 L696.5,679.2 L698.0,678.0 L699.5,676.8 L701.3,676.1 L703.2,676.0 L705.1,676.0 L707.0,676.0 L708.9,676.0 L710.9,676.0 L712.8,676.0 L714.7,676.0 L716.6,676.0 L718.5,676.0 L720.5,676.0 L722.4,676.0 L724.3,676.0 L726.2,676.0 L728.1,676.0 L730.1,676.0 L732.0,676.0 L733.9,676.0 L735.8,676.0 L737.7,676.0 L739.7,676.0 L741.6,676.0 L743.5,676.0 L745.4,676.0 L747.4,676.0 L749.3,676.0 L751.2,676.0 L753.1,676.0 L755.0,676.0 L757.0,676.0 L758.9,676.0 L760.8,676.0 L762.7,676.0 L764.6,676.0 L766.6,676.0 L768.5,676.0 L770.4,676.0 L772.3,676.0 L774.2,676.0 L776.2,676.0 L778.1,676.0 L780.0,676.0 L781.9,676.0 L783.8,676.0 L785.8,676.0 L787.7,676.0 L789.6,676.0 L791.5,676.0 L793.5,676.0 L795.4,676.0 L797.3,676.0 L799.2,676.0 L801.1,676.0 L803.1,676.0 L805.0,676.0 L806.9,676.0 L808.8,676.0 L810.7,676.0 L812.7,676.0 L814.6,676.0 L816.5,676.0 L818.4,676.0 L820.3,676.0 L822.3,676.0 L824.2,676.0 L826.1,676.0 L828.0,676.0 L830.0,676.0 L831.9,676.0 L833.8,676.0 L835.7,676.0 L837.6,676.0 L839.6,676.0 L841.5,676.0 L843.4,676.0 L845.3,676.0 L847.2,676.0 L849.2,676.0 L851.1,676.0 L853.0,676.0 L854.9,676.0 L856.8,676.0 L858.8,676.0 L860.7,676.0 L862.6,676.0 L864.5,676.0 L866.4,676.0 L868.4,676.0 L870.3,676.0 L872.2,676.0 L874.1,676.0 L876.1,676.0 L878.0,676.0 L879.9,676.0 L881.8,676.0 L883.7,676.0 L885.7,676.0 L887.6,676.0 L889.5,676.0 L891.4,676.0 L893.3,676.0 L895.3,676.0 L897.2,676.0 L899.1,676.0 L901.0,676.0 L902.9,676.0 L904.9,676.0 L906.8,676.0 L908.7,676.0 L910.6,676.0 L912.6,676.0 L914.5,676.0 L916.4,676.0 L918.3,676.0 L920.2,676.0 L922.2,676.0 L924.1,676.0 L926.0,676.0 L927.9,675.9 L929.8,675.8 L931.7,675.5 L933.6,675.2 L935.5,674.7 L937.3,674.2 L939.2,673.6 L940.9,672.9 L942.7,672.1 L944.4,671.2 L946.0,670.2 L947.6,669.1 L949.2,668.0 L950.7,666.8 L952.2,665.6 L953.6,664.3 L955.1,663.1 L956.5,661.8 L958.0,660.6 L959.4,659.3 L960.9,658.0 L962.3,656.7 L963.7,655.4 L965.1,654.1 L966.4,652.7 L967.8,651.3 L969.1,650.0 L970.4,648.6 L971.8,647.2 L973.0,645.7 L974.3,644.3 L975.6,642.9 L976.8,641.4 L978.1,639.9 L979.3,638.5 L980.5,637.0 L981.7,635.5 L983.0,634.0 L984.2,632.5 L985.4,631.1 L986.7,629.6 L987.9,628.1 L989.1,626.6 L990.4,625.2 L991.6,623.7 L992.8,622.2 L994.0,620.7 L995.3,619.3 L996.5,617.8 L997.7,616.3 L999.0,614.8 L1000.2,613.4 L1001.4,611.9 L1002.7,610.4 L1003.9,608.9 L1005.1,607.5 L1006.3,606.0 L1007.6,604.5 L1008.8,603.0 L1010.0,601.6 L1011.3,600.1 L1012.5,598.6 L1013.7,597.1 L1015.0,595.7 L1016.2,594.2 L1017.4,592.7 L1018.6,591.2 L1019.9,589.8 L1021.1,588.3 L1022.3,586.8 L1023.5,585.3 L1024.6,583.7 L1025.5,582.0 L1026.4,580.3 L1027.2,578.6 L1027.9,576.8 L1028.5,575.0 L1029.0,573.1 L1029.5,571.2 L1029.8,569.3 L1030.1,567.4 L1030.4,565.6 L1030.7,563.7 L1031.0,561.8 L1031.2,559.8 L1031.3,557.9 L1031.5,556.0 L1031.6,554.1 L1031.6,552.2 L1031.6,550.3 L1031.6,548.3 L1031.5,546.4 L1031.4,544.5 L1031.3,542.6 L1031.2,540.7 L1031.1,538.7 L1031.0,536.8 L1030.9,534.9 L1030.8,533.0 L1030.8,531.1 L1030.7,529.1 L1030.6,527.2 L1030.5,525.3 L1030.4,523.4 L1030.3,521.5 L1030.2,519.6 L1030.1,517.6 L1030.0,515.7 L1029.9,513.8 L1029.8,511.9 L1029.7,510.0 L1029.6,508.0 L1029.5,506.1 L1029.4,504.2 L1029.3,502.3 L1029.2,500.4 L1029.1,498.4 L1029.0,496.5 L1028.9,494.6 L1028.8,492.7 L1028.7,490.8 L1028.6,488.9 L1028.5,486.9 L1028.5,485.0 L1028.4,483.1 L1028.3,481.2 L1028.2,479.3 L1028.1,477.3 L1028.0,475.4 L1027.9,473.5 L1027.8,471.6 L1027.7,469.7 L1027.6,467.8 L1027.5,465.8 L1027.4,463.9 L1027.3,462.0 L1027.2,460.1 L1027.1,458.2 L1027.0,456.2 L1026.9,454.3 L1026.8,452.4 L1026.7,450.5 L1026.6,448.6 L1026.5,446.6 L1026.4,444.7 L1026.3,442.8 L1026.2,440.9 L1026.1,439.0 L1026.1,437.1 L1026.0,435.1 L1025.9,433.2 L1025.8,431.3 L1025.7,429.4 L1025.6,427.5 L1025.5,425.5 L1025.4,423.6 L1025.3,421.7 L1025.2,419.8 L1025.1,417.9 L1025.0,416.0 L1024.9,414.0 L1024.8,412.1 L1024.7,410.2 L1024.6,408.3 L1024.5,406.4 L1024.4,404.4 L1024.3,402.5 L1024.2,400.6 L1024.2,398.7 L1024.3,396.8 L1024.8,394.9 L1025.4,393.1 L1026.3,391.4 L1026.9,389.6 L1026.7,387.7 L1025.6,386.2 L1024.1,385.0 L1022.6,383.8 L1021.0,382.6 L1019.5,381.5 L1018.0,380.3 L1016.5,379.1 L1014.9,378.0 L1013.4,376.8 L1011.9,375.6 L1010.4,374.4 L1008.8,373.3 L1007.3,372.1 L1005.8,370.9 L1004.3,369.8 L1002.8,368.6 L1001.2,367.4 L999.7,366.2 L998.2,365.1 L996.7,363.9 L995.1,362.7 L993.6,361.6 L992.1,360.4 L990.6,359.2 L989.1,358.0 L987.6,356.8 L986.2,355.5 L984.8,354.2 L983.4,352.8 L982.1,351.4 L980.9,349.9 L979.7,348.4 L978.5,346.9 L977.4,345.3 L976.3,343.7 L975.3,342.1 L974.4,340.4 L973.5,338.7 L972.7,337.0 L971.9,335.3 L971.1,333.5 L970.5,331.7 L969.8,329.9 L969.2,328.0 L968.6,326.2 L968.0,324.4 L967.4,322.6 L966.8,320.8 L966.1,318.9 L965.5,317.1 L964.9,315.3 L964.3,313.5 L963.7,311.7 L963.1,309.9 L962.4,308.0 L961.8,306.2 L961.2,304.4"/><path class="route" d="M961.2,304.4 L962.2,307.3 L963.2,310.2 L964.2,313.1 L965.2,316.1 L966.2,319.0 L967.1,321.9 L968.1,324.8 L969.1,327.7 L970.1,330.6 L971.1,333.6 L972.1,336.5 L973.1,339.4 L974.1,342.3 L975.5,345.0 L977.4,347.5 L979.7,349.5 L982.3,351.1 L985.0,352.5 L987.8,353.8 L990.7,355.0 L993.6,355.9 L996.6,356.6 L999.7,357.1 L1002.7,357.5 L1005.8,358.0 L1008.8,358.4 L1011.8,359.1 L1014.6,360.3 L1017.1,362.1 L1018.9,364.6 L1020.0,367.5 L1020.5,370.5 L1020.6,373.6 L1020.7,376.7 L1020.9,379.8 L1021.0,382.8 L1021.2,385.9 L1021.3,389.0 L1021.4,392.1 L1021.6,395.2 L1021.7,398.2 L1021.8,401.3 L1022.0,404.4 L1022.1,407.5 L1022.2,410.5 L1022.4,413.6 L1022.5,416.7 L1022.7,419.8 L1022.8,422.8 L1022.9,425.9 L1023.1,429.0 L1023.2,432.1 L1023.3,435.2 L1023.5,438.2 L1023.6,441.3 L1023.8,444.4 L1023.9,447.5 L1024.0,450.5 L1024.2,453.6 L1024.3,456.7 L1024.4,459.8 L1024.6,462.8 L1024.7,465.9 L1024.8,469.0 L1025.0,472.1 L1025.1,475.2 L1025.3,478.2 L1025.4,481.3 L1025.5,484.4 L1025.7,487.5 L1025.8,490.5 L1025.9,493.6 L1026.1,496.7 L1026.2,499.8 L1026.3,502.8 L1026.5,505.9 L1026.6,509.0 L1026.8,512.1 L1026.9,515.2 L1027.0,518.2 L1027.2,521.3 L1027.3,524.4 L1027.4,527.5 L1027.6,530.5 L1027.7,533.6 L1027.9,536.7 L1028.3,539.7 L1029.0,542.7 L1029.9,545.7 L1030.9,548.6 L1031.7,551.6 L1032.0,554.6 L1032.0,557.7 L1031.4,560.7 L1030.1,563.5 L1028.6,566.2 L1027.1,568.9 L1025.6,571.6 L1024.1,574.3 L1022.6,577.0 L1021.1,579.7 L1019.6,582.4 L1018.0,585.0 L1016.5,587.7 L1014.9,590.3 L1013.2,592.9 L1011.5,595.4 L1009.7,598.0 L1007.9,600.5 L1006.1,602.9 L1004.2,605.4 L1002.3,607.8 L1000.3,610.2 L998.4,612.5 L996.4,614.9 L994.5,617.3 L992.5,619.7 L990.5,622.1 L988.6,624.4 L986.6,626.8 L984.7,629.2 L982.7,631.6 L980.8,633.9 L978.8,636.3 L976.8,638.7 L974.9,641.1 L972.9,643.5 L971.0,645.8 L969.0,648.2 L967.0,650.6 L965.1,653.0 L963.1,655.3 L961.2,657.7 L959.0,659.9 L956.6,661.8 L953.8,663.1 L950.8,663.8 L947.7,664.0 L944.6,664.0 L941.6,664.0 L938.5,664.1 L935.4,664.2 L932.3,664.4 L929.3,664.7 L926.2,665.0 L923.1,665.3 L920.1,665.6 L917.0,665.9 L913.9,666.2 L910.9,666.5 L907.8,666.8 L904.7,667.1 L901.7,667.3 L898.6,667.6 L895.5,667.8 L892.5,668.0 L889.4,668.2 L886.3,668.4 L883.2,668.5 L880.2,668.6 L877.1,668.8 L874.0,668.9 L870.9,669.0 L867.8,669.1 L864.8,669.3 L861.7,669.4 L858.6,669.5 L855.5,669.7 L852.5,669.8 L849.4,669.9 L846.3,670.0 L843.2,670.2 L840.2,670.3 L837.1,670.4 L834.0,670.5 L830.9,670.7 L827.8,670.8 L824.8,670.9 L821.7,671.0 L818.6,671.2 L815.5,671.3 L812.5,671.4 L809.4,671.5 L806.3,671.7 L803.2,671.8 L800.1,671.9 L797.1,672.0 L794.0,672.2 L790.9,672.3 L787.8,672.4 L784.8,672.5 L781.7,672.7 L778.6,672.8 L775.5,672.9 L772.5,673.0 L769.4,673.2 L766.3,673.3 L763.2,673.4 L760.1,673.5 L757.1,673.7 L754.0,673.8 L750.9,673.9 L747.8,674.0 L744.8,674.2 L741.7,674.3 L738.6,674.4 L735.5,674.6 L732.4,674.7 L729.4,674.8 L726.3,674.9 L723.2,675.1 L720.1,675.2 L717.1,675.3 L714.0,675.4 L710.9,675.6 L707.8,675.7 L704.8,675.9 L701.7,676.1 L698.6,676.5 L695.6,676.9 L692.6,677.5 L689.5,678.1 L686.5,678.7 L683.5,679.2 L680.4,679.6 L677.3,679.8 L674.3,680.0 L671.2,680.0 L668.1,680.0 L665.0,680.0 L661.9,680.0 L658.9,680.0 L655.8,679.9 L652.8,679.4 L649.8,678.4 L647.1,677.0 L644.6,675.2 L642.4,673.0 L640.5,670.6 L638.6,668.2 L636.5,665.9 L634.2,663.9 L631.6,662.3 L628.7,661.1 L625.8,660.3 L622.7,660.0 L619.6,660.0 L616.5,660.0 L613.5,660.0 L610.4,660.0 L607.3,660.0 L604.2,660.0 L601.1,660.0 L598.1,660.0 L595.0,660.0 L591.9,660.0 L588.8,660.0 L585.7,660.0 L582.7,660.0 L579.6,660.0 L576.5,660.0 L573.4,660.0 L570.3,660.0 L567.3,660.0 L564.2,660.0 L561.1,660.0 L558.0,660.0 L554.9,660.0 L551.9,660.0 L548.8,660.0 L545.7,660.0 L542.6,660.0 L539.5,660.0 L536.5,660.0 L533.4,660.0 L530.3,660.0 L527.2,660.0 L524.1,660.0 L521.1,660.0 L518.0,660.0 L514.9,660.0 L511.8,659.9 L508.8,659.5 L505.7,659.0 L502.7,658.3 L499.8,657.4 L497.0,656.1 L494.3,654.6 L491.8,652.8 L489.5,650.8 L487.4,648.5 L485.6,646.0 L484.0,643.4 L482.7,640.6 L481.6,637.7 L480.8,634.8 L480.1,631.8 L479.5,628.7 L479.1,625.7 L478.7,622.6 L478.2,619.6 L477.8,616.5 L477.4,613.5 L476.9,610.4 L476.5,607.4 L476.0,604.3 L475.6,601.3 L475.2,598.2 L474.7,595.2 L474.3,592.1 L473.9,589.1 L473.4,586.0 L473.0,583.0 L472.6,579.9 L472.1,576.9 L471.7,573.8 L471.3,570.8 L470.8,567.7 L470.4,564.7 L469.9,561.6 L469.5,558.6 L469.1,555.5 L468.6,552.5 L468.2,549.4 L467.8,546.4 L467.3,543.3 L466.9,540.3 L466.5,537.3 L466.0,534.2 L465.6,531.2 L465.2,528.1 L464.7,525.1 L464.3,522.0 L463.9,519.0 L463.4,515.9 L463.0,512.9 L462.5,509.8 L462.1,506.8 L461.7,503.7 L461.2,500.7 L460.8,497.6 L460.4,494.6 L460.1,491.5 L460.0,488.4 L460.3,485.4 L462.5,483.4 L465.5,482.6 L468.5,481.9 L471.5,481.1 L474.5,480.6 L477.6,481.0 L480.4,482.2 L483.3,483.2 L486.3,483.2 L489.3,482.2 L492.2,481.3 L495.1,480.3 L498.0,479.3 L501.0,478.3 L503.9,477.4 L506.8,476.4 L509.7,475.4 L512.6,474.5 L515.6,473.5 L518.5,472.5 L521.4,471.5 L524.3,470.6 L527.3,469.6 L530.2,468.6 L533.1,467.7 L536.1,466.8 L539.0,466.0 L542.0,465.2 L545.0,464.5 L548.0,463.9 L551.1,463.3 L554.1,462.8 L557.1,462.3 L560.2,462.0 L563.3,461.6 L566.3,461.4 L569.4,461.2 L572.5,461.1 L575.6,461.0 L578.6,461.0 L581.7,461.1 L584.8,461.2 L587.9,461.3 L590.9,461.4 L594.0,461.5 L597.1,461.7 L600.2,461.8 L603.3,461.9 L606.3,462.0 L609.4,462.2 L612.5,462.3 L615.6,462.4 L618.6,462.5 L621.7,462.7 L624.8,462.8"/><path d="M757.2195785294582,674.1560842941084L759.0634942353499,673.78730115293" fill="none" stroke="#2476b5" stroke-width="2" marker-end="url(#arrow)"/><path d="M777.5026512942665,670.0994697411468L779.3465670001581,669.7306865999684" fill="none" stroke="#2476b5" stroke-width="2" marker-end="url(#arrow)"/><path d="M797.7837509305886,666.032336841459L799.6139375306526,665.6013462635158" fill="none" stroke="#2476b5" stroke-width="2" marker-end="url(#arrow)"/><path d="M815.3501640698076,656.1574879468498L816.2231612805415,654.4937209490199" fill="none" stroke="#2476b5" stroke-width="2" marker-end="url(#arrow)"/><path d="M814.1714417505862,636.3749191632531L813.3344595747725,634.6910920714008" fill="none" stroke="#2476b5" stroke-width="2" marker-end="url(#arrow)"/><path d="M803.9913610057854,618.3728489441407L803.0518729554962,616.7439264969337" fill="none" stroke="#2476b5" stroke-width="2" marker-end="url(#arrow)"/><path d="M793.6569924526035,600.4547020248633L792.7175044023141,598.8257795776562" fill="none" stroke="#2476b5" stroke-width="2" marker-end="url(#arrow)"/><path d="M833.3619416340345,589.7969373504891L842.9940099608414,590.5974448205869" fill="none" stroke="#2476b5" stroke-width="2" marker-end="url(#arrow)"/><path d="M937.3611382246423,582.654028079708L946.0134739853584,578.360676047648" fill="none" stroke="#2476b5" stroke-width="2" marker-end="url(#arrow)"/><path d="M1016.4383309993115,520.7134360302964L1016.657939644115,511.05065565893926" fill="none" stroke="#2476b5" stroke-width="2" marker-end="url(#arrow)"/><path d="M1018.8540260921507,414.422851945367L1019.0736347369543,404.7600715740097" fill="none" stroke="#2476b5" stroke-width="2" marker-end="url(#arrow)"/><path d="M975.4698356998599,344.36484743558424L968.3871846439648,337.7881000265388" fill="none" stroke="#2476b5" stroke-width="2" marker-end="url(#arrow)"/><path d="M900.9948974431105,268.9948974431105L894.1190650827257,262.20297032604805" fill="none" stroke="#2476b5" stroke-width="2" marker-end="url(#arrow)"/><path d="M871.6992635766524,321.19696577442073L869.5494498608732,330.6190506028827" fill="none" stroke="#2476b5" stroke-width="2" marker-end="url(#arrow)"/><path d="M863.577039832856,356.4900762157326L865.8623795424292,346.5963553161406" fill="none" stroke="#2476b5" stroke-width="2" marker-end="url(#arrow)"/><path d="M869.439964548298,255.00056041521148L864.1414213799507,246.60601731618902" fill="none" stroke="#2476b5" stroke-width="2" marker-end="url(#arrow)"/><path d="M763.7319074474179,235.683844996105L753.6054866248953,234.93373974999224" fill="none" stroke="#2476b5" stroke-width="2" marker-end="url(#arrow)"/><path d="M652.4391584145205,232.3213960021751L642.6038840719881,234.83467666320269" fill="none" stroke="#2476b5" stroke-width="2" marker-end="url(#arrow)"/><path d="M543.9245644671354,248.20614013725796L534.6072473084042,244.40483153893615" fill="none" stroke="#2476b5" stroke-width="2" marker-end="url(#arrow)"/><path d="M464.84352106871086,286.77506885519233L465.2193435576948,296.9222760577599" fill="none" stroke="#2476b5" stroke-width="2" marker-end="url(#arrow)"/><path d="M502.5278409741614,379.1824592034186L512.4691919770324,381.250452625261" fill="none" stroke="#2476b5" stroke-width="2" marker-end="url(#arrow)"/><path d="M556.0725280896747,392.63869188579764L548.8870337076096,391.60755026295715" fill="none" stroke="#2476b5" stroke-width="2" marker-end="url(#arrow)"/><path d="M477.4729021972156,387.63688946100893L472.10640514785416,392.46830895689226" fill="none" stroke="#2476b5" stroke-width="2" marker-end="url(#arrow)"/><path d="M462.4221415985883,463.66787602117535L461.943474801098,470.91117778855954" fill="none" stroke="#2476b5" stroke-width="2" marker-end="url(#arrow)"/><path d="M460,543.4609956861049L460,550.7200991129093" fill="none" stroke="#2476b5" stroke-width="2" marker-end="url(#arrow)"/><path d="M460,623.3111333809529L460,630.5702368077573" fill="none" stroke="#2476b5" stroke-width="2" marker-end="url(#arrow)"/><path d="M507.74031393269547,666.0903874426922L514.993617036219,665.8002553185512" fill="none" stroke="#2476b5" stroke-width="2" marker-end="url(#arrow)"/><path d="M577.0191224794506,684.5095612397254L583.821953602667,684.9011354427407" fill="none" stroke="#2476b5" stroke-width="2" marker-end="url(#arrow)"/><path d="M652.5394517693503,679.5267917792896L662.1095708329058,680" fill="none" stroke="#2476b5" stroke-width="2" marker-end="url(#arrow)"/><path d="M756.9552083624008,676L766.5598916101667,676" fill="none" stroke="#2476b5" stroke-width="2" marker-end="url(#arrow)"/><path d="M862.6067240878273,676L872.2114073355933,676" fill="none" stroke="#2476b5" stroke-width="2" marker-end="url(#arrow)"/><path d="M962.275810303969,656.7051693424734L969.1186898388344,649.9670794447709" fill="none" stroke="#2476b5" stroke-width="2" marker-end="url(#arrow)"/><path d="M1028.541182551557,574.9661441543003L1030.407881958116,565.5526313403291" fill="none" stroke="#2476b5" stroke-width="2" marker-end="url(#arrow)"/><path d="M1027.6835236770733,469.6704735414632L1027.2038886841788,460.07777368357597" fill="none" stroke="#2476b5" stroke-width="2" marker-end="url(#arrow)"/><path d="M1008.8491254565342,373.26855804348793L1001.2362231066038,367.4124793127721" fill="none" stroke="#2476b5" stroke-width="2" marker-end="url(#arrow)"/><path d="M1005.7551893687885,357.96502705268404L1018.8687517207277,364.6327569381166" fill="none" stroke="#2476b5" stroke-width="2" marker-end="url(#arrow)"/><path d="M1027.032366135804,518.2282380555916L1027.716109783338,533.6124701251042" fill="none" stroke="#2476b5" stroke-width="2" marker-end="url(#arrow)"/><path d="M956.5695030413638,661.7657596760475L941.5665293987477,664.0184276321866" fill="none" stroke="#2476b5" stroke-width="2" marker-end="url(#arrow)"/><path d="M787.8392797554615,672.4147232752873L772.4526723774158,673.0427480662279" fill="none" stroke="#2476b5" stroke-width="2" marker-end="url(#arrow)"/><path d="M625.7545684699564,660.3294226118123L610.373511047463,660" fill="none" stroke="#2476b5" stroke-width="2" marker-end="url(#arrow)"/><path d="M478.66021515056156,622.6215060539308L476.4824084477334,607.3768591341338" fill="none" stroke="#2476b5" stroke-width="2" marker-end="url(#arrow)"/><path d="M489.27137125452566,482.2428762484914L503.88054274266096,477.373152419113" fill="none" stroke="#2476b5" stroke-width="2" marker-end="url(#arrow)"/><circle cx="788" cy="576" r="6" fill="#253d32"/><text x="798" y="566" font-size="15" style="paint-order:stroke;stroke:#f7f5ee;stroke-width:5;stroke-linejoin:round">① 장사꾼 · 제금루</text><circle cx="820" cy="356" r="6" fill="#253d32"/><text x="830" y="346" font-size="15" style="paint-order:stroke;stroke:#f7f5ee;stroke-width:5;stroke-linejoin:round">② 농민 · 동헌</text><circle cx="592" cy="388" r="6" fill="#253d32"/><text x="602" y="378" font-size="15" style="paint-order:stroke;stroke:#f7f5ee;stroke-width:5;stroke-linejoin:round">③ 찬모 · 객사</text><circle cx="611.4" cy="636" r="6" fill="#253d32"/><text x="621.4" y="626" font-size="15" style="paint-order:stroke;stroke:#f7f5ee;stroke-width:5;stroke-linejoin:round">④ 주민 삼총사 · 민가</text><circle cx="964" cy="296" r="6" fill="#253d32"/><text x="974" y="286" font-size="15" style="paint-order:stroke;stroke:#f7f5ee;stroke-width:5;stroke-linejoin:round">⑤ 나무꾼 · 뒷산</text><circle cx="610.9" cy="438" r="6" fill="#253d32"/><text x="620.9" y="428" font-size="15" style="paint-order:stroke;stroke:#f7f5ee;stroke-width:5;stroke-linejoin:round">석사자 한 쌍 · 객사터</text><text x="55" y="950" font-size="15">초록: 추가 배치 · 회색: 기존 건물 · 파랑: 카메라 경로 / 웹 테스트 공간 좌표 기준</text></svg>